<svg
                data="second"
                xmlns="http://www.w3.org/2000/svg"
                xmlns:xlink="http://www.w3.org/1999/xlink"
                viewBox="0 0 15 12"
              >
                <path
                  d="M 2.156 4.832 C 1.512 4.832 0.99 5.355 0.99 5.999 C 0.99 6.643 1.512 7.166 2.156 7.166 L 13.823 7.166 C 14.467 7.166 14.99 6.643 14.99 5.999 C 14.99 5.355 14.467 4.832 13.823 4.832 Z"
                  fill="rgb(255, 255, 255)"
                ></path>
                <path
                  d="M 14.589 5.174 C 14.699 5.284 14.753 5.338 14.793 5.39 C 15.069 5.749 15.069 6.249 14.793 6.608 C 14.753 6.66 14.699 6.715 14.589 6.824 L 10.464 10.949 C 10.355 11.058 10.3 11.113 10.248 11.153 C 9.889 11.428 9.39 11.428 9.031 11.153 C 8.979 11.113 8.924 11.058 8.814 10.949 C 8.705 10.839 8.65 10.785 8.61 10.733 C 8.335 10.374 8.335 9.874 8.61 9.515 C 8.65 9.463 8.705 9.408 8.814 9.299 L 12.939 5.174 C 13.049 5.065 13.104 5.01 13.155 4.97 C 13.514 4.695 14.014 4.695 14.373 4.97 C 14.425 5.01 14.48 5.065 14.589 5.174 Z"
                  fill="rgb(255, 255, 255)"
                ></path>
                <path
                  d="M 8.815 1.049 C 8.924 0.94 8.979 0.885 9.031 0.845 C 9.39 0.57 9.889 0.57 10.248 0.845 C 10.3 0.885 10.355 0.94 10.464 1.049 L 14.589 5.174 C 14.699 5.284 14.753 5.338 14.793 5.39 C 15.069 5.749 15.069 6.249 14.793 6.608 C 14.753 6.66 14.699 6.715 14.589 6.824 C 14.48 6.934 14.425 6.988 14.373 7.028 C 14.014 7.304 13.515 7.304 13.155 7.028 C 13.104 6.988 13.049 6.934 12.939 6.824 L 8.815 2.699 C 8.705 2.59 8.65 2.535 8.61 2.483 C 8.335 2.124 8.335 1.625 8.61 1.266 C 8.65 1.214 8.705 1.159 8.815 1.049 Z"
                  fill="rgb(255, 255, 255)"
                ></path>
              </svg>