<svg
            viewBox="150 0 1000 1000"
            width="1000px"
            fill="none"
            xmlns="http://www.w3.org/2000/svg"
          >
            <g opacity="0.4">
              <path
                d="M1019.6 748.062C1031.45 821.765 962.125 865.817 891.118 789.641C830.119 724.201 663.19 866.661 683.43 694.025C691.403 626.023 760.722 600.635 787.876 474.157C815.029 347.679 829.941 397.297 880.745 363.916C931.548 330.534 1065.27 466.201 1034.14 493.12C1003 520.039 1007.76 674.359 1019.6 748.062Z"
                fill="#18E79D"
              ></path>
              <path
                d="M718.058 630.241C769.182 701.549 738.244 787.56 638.108 747.23C552.084 712.585 498.116 958.219 416.991 763.94C385.035 687.413 426.502 621.165 376.988 471.832C327.474 322.499 367.475 366.565 389.528 302.37C411.582 238.175 595.766 305.875 585.897 352.058C576.029 398.24 666.934 558.933 718.058 630.241Z"
                fill="#FF5E3A"
              ></path>
              <path
                d="M804.297 339.265C859.074 315.012 910.216 353.536 867.753 419.378C831.274 475.941 982.87 560.79 843.007 584.296C787.914 593.555 751.367 550.975 645.931 559.644C540.494 568.312 575.701 547.172 537.363 519.179C499.026 491.186 572.902 368.883 601.449 384.632C629.997 400.381 749.52 363.517 804.297 339.265Z"
                fill="#E01FE9"
              ></path>
            </g>
          </svg>