<svg width="244" height="158" viewBox="0 0 244 158" fill="none" xmlns="http://www.w3.org/2000/svg">
<path d="M242.55 127.968C237.94 142.285 222.867 148.49 209.592 151.739C182.904 158.269 154.373 156.909 127.424 151.889C127.315 151.868 127.202 151.883 127.101 151.931C127.001 151.979 126.918 152.058 126.865 152.156C125.041 155.587 121.662 156.121 118.114 156.394C88.5806 158.647 59.3662 157.775 29.9501 154.441C21.2255 153.458 13.1976 152.091 6.1593 148.946C2.38733 147.257 0.334225 144.351 0 140.228C0.0217029 136.404 1.49533 133.432 4.42089 131.314C4.60319 131.18 4.67916 131.002 4.64877 130.78C2.61738 116.691 9.9877 104.333 21.245 96.4876C30.5425 90.0027 45.0293 84.5987 56.6837 86.5129C56.7394 86.5217 56.7964 86.5168 56.8497 86.4985C56.903 86.4803 56.951 86.4492 56.9895 86.4081C57.028 86.367 57.0559 86.3171 57.0707 86.2627C57.0855 86.2084 57.0868 86.1512 57.0744 86.0962C52.074 63.6207 54.75 32.5703 80.2662 23.0253C87.6365 20.2712 96.1918 20.3689 104.031 21.7882C113.45 23.4941 122.661 25.9661 131.663 29.2041C131.919 29.2953 132.021 29.2063 131.969 28.9372C130.758 22.7388 127.887 15.974 135.713 12.5819C145.462 8.34978 156.22 4.85561 167.987 2.09934C174.85 0.491151 183.281 -2.19133 186.537 5.94727C189.258 12.7446 191.954 19.5116 194.623 26.2482C194.664 26.352 194.734 26.4424 194.825 26.5091C194.916 26.5758 195.024 26.6162 195.138 26.6258C205.321 27.4397 209.702 38.1761 210.731 46.9007C211.356 52.1962 209.494 56.1961 205.145 58.9003C205.11 58.923 205.08 58.9531 205.058 58.9882C205.035 59.0234 205.021 59.0628 205.015 59.1038C205.01 59.1447 205.013 59.1862 205.025 59.2253C205.038 59.2643 205.058 59.3001 205.086 59.33C207.554 62.0385 207.092 64.9489 205.75 68.048C205.71 68.1458 205.691 68.2509 205.695 68.3556C205.7 68.4604 205.728 68.5621 205.776 68.6536C206.532 70.0729 207.267 70.9519 209.012 71.0886C214.681 71.5314 220.675 72.8661 226.995 75.0928C236.911 78.5892 241.033 87.2682 241.899 97.0605C242.298 101.531 241.597 105.742 239.796 109.692C239.705 109.887 239.709 110.08 239.809 110.271C240.414 111.411 241.241 112.602 241.697 113.637C243.711 118.234 243.995 123.011 242.55 127.968ZM175.937 82.1311L197.195 71.9481C200.34 70.6329 204.324 68.1913 204.683 64.4736C204.937 61.8171 203.146 59.2128 200.229 59.7141L198.139 59.343L195.86 58.5812C192.978 57.0447 190.665 54.7051 188.92 51.5625C184.909 43.9122 183.457 32.1991 192.371 27.1402C192.44 27.1004 192.492 27.0371 192.519 26.9618C192.545 26.8865 192.543 26.8042 192.514 26.73C189.853 19.95 187.188 13.1743 184.518 6.40303C183.132 2.90018 179.87 1.87145 176.308 2.52254C163.208 4.91421 150.501 8.63843 138.187 13.6952C134.482 15.2123 131.689 17.3934 132.607 21.7101C136.527 40.188 141.996 58.1949 149.015 75.7309C151.704 82.4501 154.139 89.9051 162.551 87.2486C167.234 85.7685 171.696 84.0626 175.937 82.1311ZM84.3941 24.054C77.4469 25.1348 70.7603 30.2459 66.6128 35.6694C52.9139 51.9011 56.814 75.9978 61.0135 94.7492C61.052 94.9206 61.1305 95.0803 61.2426 95.215C61.3547 95.3498 61.4971 95.4557 61.658 95.524C77.7139 102.321 88.9842 114.406 97.9302 129.439C102.735 137.506 113.537 141.654 121.864 144.362C124.46 145.204 126.192 146.88 127.06 149.389C127.134 149.592 127.277 149.716 127.49 149.76C149.672 153.992 173.639 155.75 196.043 152.318C204.793 151.073 213.255 148.857 221.429 145.671C226.993 143.501 231.56 140.475 235.127 136.595C240.603 130.637 243.266 121.913 239.666 114.282C237.419 109.522 233.376 104.952 228.591 103.448C220.482 100.908 212.261 99.8255 203.927 100.199C203.832 100.203 203.737 100.188 203.649 100.154C203.56 100.12 203.479 100.068 203.411 100.002C203.343 99.9352 203.29 99.8553 203.254 99.767C203.219 99.6788 203.202 99.5842 203.205 99.4891L203.446 90.7385C203.463 90.1264 203.773 89.8617 204.377 89.9441L204.761 89.9962C204.981 90.0266 205.181 90.1379 205.324 90.3086C205.467 90.4793 205.543 90.6974 205.536 90.9208L205.308 97.6921C205.306 97.7279 205.311 97.7638 205.324 97.7973C205.337 97.8309 205.356 97.8615 205.381 97.8871C205.406 97.9128 205.437 97.933 205.47 97.9465C205.503 97.96 205.539 97.9665 205.575 97.9656C210.575 97.9482 215.523 98.3866 220.419 99.2808C227.979 100.661 233.213 102.126 237.986 107.556C238.021 107.595 238.065 107.623 238.115 107.64C238.164 107.656 238.217 107.66 238.268 107.65C238.318 107.64 238.365 107.617 238.404 107.584C238.442 107.55 238.471 107.507 238.487 107.458C241.977 97.4317 238.611 81.5972 227.458 77.4042C222.917 75.6983 217.83 74.381 212.196 73.4521C208.615 72.8596 206.851 74.2529 204.416 70.3855C204.29 70.1858 204.138 70.1619 203.96 70.3138C202.736 71.3295 201.234 72.2953 199.454 73.2112C188.694 78.7454 178.303 83.5635 168.28 87.6653C164.708 89.1281 161.153 89.8487 157.615 89.827C157.442 89.827 157.355 89.9138 157.355 90.0874C157.39 93.3472 156.569 96.8696 154.894 100.655C151.378 108.607 147.354 115.428 142.823 121.118C137.631 127.343 131.09 131.642 123.199 134.016C121.767 134.45 119.663 134.665 116.89 134.661C116.26 134.661 115.933 134.346 115.907 133.717L115.9 133.482C115.896 133.383 115.911 133.284 115.945 133.191C115.979 133.098 116.031 133.012 116.098 132.939C116.165 132.865 116.246 132.806 116.336 132.764C116.426 132.723 116.524 132.699 116.623 132.695C133.349 131.946 144.144 118.572 150.662 104.626C153.377 99.6779 155.512 94.938 155.05 89.6772C155.032 89.4817 154.97 89.2927 154.87 89.1238C154.77 88.955 154.633 88.8104 154.471 88.7006C152.509 87.368 151.018 85.5493 149.998 83.2445C148.049 78.8344 146.228 74.3788 144.535 69.8776C144.495 69.7708 144.423 69.6787 144.329 69.6136C144.235 69.5484 144.123 69.5134 144.008 69.513C137.197 69.4609 132.685 74.6761 130.387 80.9266C129.289 83.6655 128.197 86.4239 127.112 89.2019C124.26 96.4941 119.151 101.471 111.785 104.131C111.156 104.361 110.676 104.298 110.346 103.943C110.004 102.775 110.325 102.113 111.31 101.957C117.061 100.077 121.328 96.3248 124.11 90.6994C124.197 90.5214 124.143 90.4477 123.948 90.478C123.479 90.5562 123.025 90.6821 122.587 90.8557C114.11 94.2348 105.952 90.5627 100.274 84.1299C90.5794 73.1526 87.8644 56.947 96.1918 44.6089C105.209 31.2355 120.601 31.0662 134.027 37.5316C134.047 37.541 134.069 37.5445 134.091 37.5416C134.114 37.5387 134.134 37.5295 134.152 37.5151C134.169 37.5008 134.181 37.4818 134.188 37.4605C134.195 37.4392 134.195 37.4164 134.189 37.3948L132.809 32.0754C132.795 32.0229 132.769 31.9744 132.732 31.9337C132.696 31.893 132.651 31.8613 132.601 31.841C121.076 27.4788 108.491 23.9108 96.1462 23.0969C91.8837 22.8148 87.9664 23.1338 84.3941 24.054ZM189.017 33.8594C185.625 41.6855 190.723 57.0512 200.372 57.5525C203.354 57.7023 206.017 56.4782 207.43 53.8674C210.041 49.0558 208.068 42.1933 205.842 37.499C204.049 33.7227 201.657 31.0814 198.667 29.5753C194.278 27.355 190.73 29.9073 189.017 33.8594ZM96.4327 63.0607C95.5342 63.2126 94.7203 63.6076 93.9911 64.2457C93.8218 64.3933 93.7589 64.5778 93.8023 64.7991C94.1083 66.3617 94.1213 68.0415 94.7854 69.5C95.3779 70.8087 95.6318 72.3452 96.1918 73.4781C97.2335 75.5659 98.3664 77.6039 99.5905 79.5918C101.101 82.0334 103.321 83.7393 105.411 85.7186C106.687 86.9296 110.158 88.8503 112.495 89.28C114.377 89.6186 116.467 90.8036 117.906 88.6615C117.875 89.0435 117.899 89.3603 117.977 89.6121C118.042 89.8291 118.186 89.9224 118.407 89.8921C121.727 89.4689 125.419 87.8411 126.682 84.5076C127.85 81.4171 129.156 78.3808 130.602 75.3988L133.304 71.9676C135.153 70.685 135.941 69.5586 138.395 68.3606C139.285 68.5516 139.993 68.1935 140.518 67.2863C141.312 67.5858 142.261 67.6053 143.363 67.3449C143.563 67.2971 143.624 67.1756 143.545 66.9803C142.981 65.5609 142.445 64.1632 141.937 62.7873C141.833 62.5073 141.605 62.3055 141.371 62.1687C141.123 61.5307 141.299 60.9251 141.097 60.3066C140.056 57.1206 138.977 53.9477 137.861 50.7877C136.644 47.3434 136.071 43.5932 134.762 40.1815C134.707 40.0374 134.622 39.906 134.513 39.7952C134.405 39.6844 134.275 39.5965 134.131 39.5369C132.195 38.7252 130.179 37.9917 128.082 37.3362C126.292 36.7763 124.449 36.7112 122.554 36.4247C122.342 36.39 122.196 36.4746 122.118 36.6786C121.953 37.117 121.721 37.4903 121.421 37.7985L121.239 36.3726C121.208 36.136 121.095 35.9176 120.921 35.7549C120.746 35.5921 120.52 35.4952 120.282 35.4806C110.108 34.9207 102.499 38.671 97.4549 46.7314C94.4035 51.6059 93.0665 56.934 93.4442 62.7156C93.451 62.8324 93.5024 62.942 93.5875 63.021C93.6726 63.1001 93.7847 63.1423 93.8999 63.1388L96.4327 63.0607ZM54.3008 93.727L54.457 93.3754C54.5284 93.2214 54.6549 93.0997 54.8117 93.0346C54.9685 92.9695 55.144 92.9656 55.3034 93.0238L58.3831 94.1632C58.4184 94.1773 58.457 94.1814 58.4945 94.1751C58.5321 94.1688 58.5672 94.1524 58.596 94.1276C58.6249 94.1027 58.6464 94.0705 58.6582 94.0343C58.67 93.9981 58.6717 93.9594 58.663 93.9223L57.5887 89.0782C57.5608 88.953 57.4942 88.8398 57.3984 88.7545C57.3026 88.6692 57.1824 88.6162 57.0549 88.6029C39.5731 86.7147 18.4649 96.0969 10.0854 111.879C6.64761 118.351 4.27765 128.58 9.01106 134.908C9.40172 135.429 9.39086 135.939 8.97851 136.438L8.77667 136.679C8.72429 136.743 8.6591 136.795 8.58528 136.831C8.51146 136.868 8.43062 136.889 8.34792 136.893C8.26522 136.896 8.18247 136.883 8.10495 136.853C8.02744 136.823 7.95685 136.777 7.8977 136.718C6.96882 135.772 6.23743 134.693 5.70353 133.482C5.68086 133.428 5.64565 133.38 5.60079 133.342C5.55593 133.304 5.50271 133.278 5.4455 133.264C5.38829 133.251 5.32873 133.251 5.27172 133.265C5.21471 133.28 5.16187 133.307 5.11755 133.346C-0.247413 138.02 1.95978 145.528 8.43159 147.637C14.3109 149.551 19.9884 151.068 26.317 151.876C56.2714 155.695 86.3299 156.566 116.493 154.487C118.863 154.324 124.762 154.05 125.068 150.684C125.269 148.457 122.437 146.713 120.471 146.172C113.969 144.379 108.109 141.515 102.891 137.578C102.853 137.55 102.806 137.536 102.758 137.538C102.711 137.54 102.665 137.557 102.629 137.588C102.592 137.618 102.567 137.66 102.557 137.707C102.546 137.753 102.552 137.802 102.572 137.845L104.884 142.376C104.932 142.47 104.961 142.573 104.969 142.678C104.977 142.783 104.963 142.888 104.93 142.988C104.897 143.087 104.844 143.179 104.774 143.257C104.705 143.336 104.62 143.399 104.526 143.444L104.194 143.6C103.564 143.9 103.098 143.735 102.794 143.105C93.3791 123.456 81.36 106.345 60.7661 97.5033C58.8128 96.6656 56.8291 95.8387 54.8151 95.0226C54.6943 94.9738 54.5847 94.9009 54.4928 94.8085C54.401 94.7161 54.3288 94.606 54.2807 94.4848C54.2327 94.3637 54.2096 94.2341 54.2131 94.1039C54.2165 93.9736 54.2464 93.8454 54.3008 93.727Z" fill="#050507"/>
<path d="M144.73 22.791C144.73 23.3488 144.509 23.8837 144.114 24.2781C143.72 24.6724 143.185 24.894 142.627 24.894C142.07 24.894 141.535 24.6724 141.14 24.2781C140.746 23.8837 140.524 23.3488 140.524 22.791C140.524 22.2332 140.746 21.6983 141.14 21.3039C141.535 20.9096 142.07 20.688 142.627 20.688C143.185 20.688 143.72 20.9096 144.114 21.3039C144.509 21.6983 144.73 22.2332 144.73 22.791Z" fill="#050507"/>
<path d="M98.5959 28.4101C98.612 28.558 98.5987 28.7076 98.557 28.8504C98.5152 28.9932 98.4458 29.1264 98.3525 29.2423C98.2593 29.3583 98.1442 29.4547 98.0137 29.5262C97.8832 29.5976 97.7399 29.6427 97.592 29.6587L97.2425 29.6967C97.0946 29.7128 96.9449 29.6996 96.8021 29.6578C96.6593 29.6161 96.5262 29.5466 96.4102 29.4534C96.2943 29.3601 96.1978 29.245 96.1264 29.1145C96.0549 28.984 96.0099 28.8407 95.9938 28.6928L95.9362 28.162C95.9201 28.0141 95.9333 27.8645 95.9751 27.7217C96.0168 27.5789 96.0863 27.4457 96.1795 27.3298C96.2728 27.2138 96.3879 27.1174 96.5184 27.0459C96.6489 26.9745 96.7922 26.9294 96.9401 26.9134L97.2896 26.8754C97.4375 26.8593 97.5871 26.8726 97.7299 26.9143C97.8727 26.9561 98.0059 27.0255 98.1219 27.1188C98.2378 27.212 98.3343 27.3271 98.4057 27.4576C98.4772 27.5881 98.5222 27.7314 98.5383 27.8793L98.5959 28.4101Z" fill="#050507"/>
<path d="M88.9321 36.3791C88.9321 36.5629 88.8959 36.7449 88.8256 36.9148C88.7552 37.0846 88.6521 37.2389 88.5221 37.3689C88.3921 37.4989 88.2378 37.602 88.068 37.6724C87.8981 37.7427 87.7161 37.7789 87.5323 37.7789C87.161 37.7789 86.805 37.6314 86.5424 37.3689C86.2799 37.1064 86.1324 36.7503 86.1324 36.3791C86.1324 36.0078 86.2799 35.6518 86.5424 35.3892C86.805 35.1267 87.161 34.9792 87.5323 34.9792C87.7161 34.9792 87.8981 35.0155 88.068 35.0858C88.2378 35.1561 88.3921 35.2593 88.5221 35.3892C88.6521 35.5192 88.7552 35.6736 88.8256 35.8434C88.8959 36.0132 88.9321 36.1953 88.9321 36.3791Z" fill="#050507"/>
<path d="M165.682 44.3158L164.074 44.5177C163.968 44.5313 163.86 44.5227 163.758 44.4923C163.655 44.4619 163.56 44.4104 163.479 44.3412C163.397 44.2719 163.331 44.1864 163.284 44.0901C163.238 43.9938 163.212 43.8888 163.208 43.7819C163.039 38.4495 169.068 35.9624 173.261 38.9053C173.303 38.9351 173.351 38.9562 173.401 38.9674C173.452 38.9786 173.504 38.9797 173.555 38.9706C173.606 38.9615 173.654 38.9425 173.698 38.9145C173.741 38.8865 173.779 38.8502 173.808 38.8076L174.713 37.4989C174.813 37.3547 174.942 37.2332 175.092 37.1424C175.242 37.0516 175.409 36.9936 175.583 36.9721C175.757 36.9505 175.934 36.966 176.101 37.0176C176.269 37.0691 176.424 37.1555 176.556 37.271C177.395 38.0133 177.936 41.0734 178.274 42.2909C178.295 42.3641 178.299 42.4411 178.286 42.5159C178.272 42.5908 178.242 42.6615 178.196 42.7226C178.151 42.7837 178.092 42.8336 178.024 42.8682C177.957 42.9029 177.882 42.9215 177.806 42.9225L175.488 42.9485C175.381 42.9506 175.277 42.9799 175.187 43.0337C175.097 43.0874 175.023 43.1636 174.973 43.2546C174.648 43.834 174.492 44.5437 174.094 45.019C171.833 47.7058 168.955 48.3982 165.461 47.096C165.364 47.0608 165.278 47.0001 165.213 46.9203C165.148 46.8405 165.105 46.7445 165.09 46.6425C165.074 46.5404 165.087 46.4362 165.126 46.3407C165.165 46.2451 165.229 46.1619 165.311 46.0998C165.78 45.7439 166.045 45.2903 166.106 44.739C166.113 44.6817 166.107 44.6234 166.089 44.5686C166.07 44.5139 166.039 44.4642 165.998 44.4233C165.957 44.3824 165.908 44.3514 165.853 44.3328C165.798 44.3142 165.74 44.3084 165.682 44.3158Z" fill="#050507"/>
<path d="M78.2584 75.2079C77.7354 75.3258 77.1929 75.3329 76.6617 75.2289C76.1306 75.1248 75.6212 74.9117 75.1628 74.6017C74.7043 74.2916 74.3057 73.8907 73.9897 73.4218C73.6738 72.9529 73.4466 72.4252 73.3212 71.8689C73.068 70.7453 73.2448 69.5732 73.8126 68.6103C74.3804 67.6475 75.2927 66.9729 76.3489 66.7349C76.8719 66.617 77.4145 66.6099 77.9456 66.7139C78.4768 66.8179 78.9861 67.0311 79.4446 67.3411C79.903 67.6512 80.3016 68.0521 80.6176 68.521C80.9336 68.9899 81.1607 69.5176 81.2861 70.0739C81.5393 71.1975 81.3626 72.3696 80.7948 73.3324C80.227 74.2952 79.3146 74.9699 78.2584 75.2079Z" fill="#050507"/>
<path d="M96.3139 106.765C96.1984 106.907 96.0313 106.997 95.8492 107.016C95.6672 107.035 95.4851 106.981 95.343 106.865L95.3228 106.849C95.2524 106.792 95.194 106.721 95.1509 106.641C95.1078 106.562 95.0808 106.474 95.0715 106.384C95.0622 106.294 95.0707 106.203 95.0966 106.116C95.1225 106.029 95.1653 105.948 95.2225 105.878L100.38 99.5316C100.495 99.3896 100.662 99.2992 100.845 99.2804C101.027 99.2616 101.209 99.3159 101.351 99.4313L101.371 99.4477C101.441 99.5049 101.5 99.5753 101.543 99.655C101.586 99.7348 101.613 99.8222 101.622 99.9124C101.632 100.003 101.623 100.094 101.597 100.181C101.571 100.267 101.529 100.348 101.471 100.419L96.3139 106.765Z" fill="#050507"/>
<path d="M106.427 104.587L100.287 110.773C100.093 110.966 99.8343 111.09 99.5514 111.124C99.2692 111.163 99.0717 110.977 98.9589 110.564C100.843 107.873 103.035 105.562 105.535 103.63C105.713 103.496 105.902 103.474 106.101 103.565C106.496 103.743 106.605 104.084 106.427 104.587Z" fill="#050507"/>
<path d="M41.7643 111.708C41.6234 111.85 41.3644 111.864 41.0444 111.747C40.7243 111.629 40.3693 111.39 40.0576 111.081C39.7458 110.773 39.5028 110.421 39.382 110.102C39.2612 109.783 39.2725 109.524 39.4133 109.381C39.5542 109.239 39.8132 109.225 40.1333 109.343C40.4533 109.46 40.8083 109.699 41.12 110.008C41.4318 110.316 41.6748 110.669 41.7956 110.988C41.9164 111.306 41.9052 111.565 41.7643 111.708Z" fill="#050507"/>
<path d="M50.0866 114.355C49.9381 114.365 49.7871 114.312 49.6422 114.201C49.4973 114.09 49.3612 113.922 49.2419 113.706C49.1226 113.491 49.0222 113.233 48.9467 112.947C48.8711 112.66 48.8217 112.351 48.8014 112.037C48.7604 111.403 48.8402 110.787 49.0232 110.325C49.2062 109.863 49.4775 109.592 49.7773 109.573C49.9258 109.563 50.0768 109.616 50.2218 109.727C50.3667 109.838 50.5027 110.006 50.622 110.222C50.7414 110.437 50.8417 110.695 50.9173 110.981C50.9929 111.268 51.0422 111.577 51.0625 111.891C51.1035 112.525 51.0238 113.141 50.8407 113.603C50.6577 114.065 50.3864 114.336 50.0866 114.355Z" fill="#050507"/>
<path d="M39.6652 114.076C39.5137 114.199 39.234 114.151 38.8874 113.944C38.5408 113.736 38.1559 113.385 37.8172 112.968C37.6495 112.762 37.4982 112.546 37.3719 112.332C37.2457 112.118 37.147 111.91 37.0814 111.721C37.0158 111.532 36.9847 111.365 36.9898 111.23C36.9949 111.095 37.0361 110.994 37.1111 110.933C37.2625 110.81 37.5423 110.857 37.8888 111.065C38.2354 111.273 38.6204 111.624 38.9591 112.04C39.1268 112.247 39.2781 112.463 39.4043 112.677C39.5306 112.891 39.6293 113.098 39.6949 113.287C39.7604 113.476 39.7915 113.643 39.7865 113.779C39.7814 113.914 39.7401 114.015 39.6652 114.076Z" fill="#050507"/>
<path d="M59.1578 121.887C56.3386 119.582 53.9752 116.196 52.5949 112.719C52.5192 112.527 52.518 112.314 52.5915 112.121C52.665 111.929 52.8078 111.77 52.992 111.677L53.3241 111.521C53.8233 111.274 54.1966 111.4 54.444 111.899C59.223 121.567 67.1662 125.298 76.6396 129.341C76.7387 129.383 76.8284 129.444 76.9032 129.521C76.978 129.599 77.0364 129.69 77.0747 129.791C77.1131 129.891 77.1306 129.998 77.1263 130.106C77.1221 130.213 77.096 130.319 77.0497 130.416L76.9065 130.722C76.8071 130.931 76.6325 131.094 76.4176 131.18C76.2028 131.266 75.9635 131.267 75.7476 131.184C70.8167 129.292 66.1505 126.887 61.7492 123.97C61.5408 123.831 61.3455 123.851 61.1632 124.029C58.3418 126.854 55.1146 129.085 51.4815 130.722C50.8435 131.013 50.3421 130.858 49.9775 130.259L49.8733 130.09C49.8203 130.004 49.7855 129.907 49.7709 129.807C49.7563 129.706 49.7623 129.604 49.7885 129.506C49.8147 129.408 49.8605 129.316 49.9232 129.237C49.986 129.157 50.0642 129.091 50.1533 129.042L53.4153 127.238C53.4525 127.217 53.4847 127.188 53.5097 127.154C53.5347 127.119 53.5518 127.079 53.5599 127.038C53.568 126.996 53.5668 126.954 53.5564 126.913C53.5461 126.872 53.5268 126.834 53.4999 126.802L48.9227 121.203C48.863 121.13 48.7826 121.076 48.692 121.049C48.6014 121.023 48.5048 121.024 48.4149 121.053C47.7508 121.274 47.0606 121.37 46.3444 121.34C46.1393 121.329 45.941 121.262 45.7725 121.144C45.604 121.026 45.4723 120.864 45.3925 120.675C45.3128 120.486 45.2883 120.279 45.322 120.077C45.3556 119.876 45.446 119.688 45.5827 119.536C46.5072 118.494 48.2131 116.912 49.5738 116.847C49.7764 116.836 49.9787 116.874 50.1634 116.958C50.3482 117.042 50.51 117.169 50.6352 117.329C50.7604 117.489 50.8453 117.676 50.8827 117.876C50.92 118.075 50.9088 118.281 50.85 118.475C50.6091 119.282 50.7132 119.914 51.2602 120.61C52.5797 122.295 53.8905 123.905 55.1927 125.441C55.2564 125.517 55.3345 125.579 55.4225 125.623C55.5105 125.668 55.6065 125.694 55.7049 125.701C55.8033 125.707 55.9021 125.694 55.9953 125.662C56.0885 125.63 56.1742 125.579 56.2475 125.513L59.1839 122.883C59.5659 122.544 59.5572 122.212 59.1578 121.887Z" fill="#050507"/>
<path d="M39.4234 125.194C39.4234 125.842 39.1662 126.463 38.7083 126.921C38.2504 127.378 37.6293 127.636 36.9818 127.636C36.3343 127.636 35.7132 127.378 35.2553 126.921C34.7975 126.463 34.5402 125.842 34.5402 125.194C34.5402 124.547 34.7975 123.926 35.2553 123.468C35.7132 123.01 36.3343 122.753 36.9818 122.753C37.6293 122.753 38.2504 123.01 38.7083 123.468C39.1662 123.926 39.4234 124.547 39.4234 125.194Z" fill="#050507"/>
<path d="M79.1333 148.49C80.2922 144.278 74.0222 143.229 71.2356 143.034C70.5932 142.986 70.2763 142.643 70.285 142.005L70.2915 141.777C70.2958 141.265 70.5541 141.009 71.0663 141.009C75.2723 141.003 80.5592 142.35 81.3274 146.849C82.4864 153.64 72.3554 153.399 68.3903 152.364C68.2039 152.315 68.0413 152.201 67.9325 152.042C67.8237 151.883 67.7759 151.69 67.7978 151.498L67.8239 151.238C67.902 150.534 68.2883 150.257 68.9828 150.404C71.483 150.925 78.3064 151.479 79.1333 148.49Z" fill="#050507"/>
<path d="M40.9236 141.555C41.0176 141.652 41.0916 141.766 41.1414 141.892C41.1911 142.018 41.2156 142.152 41.2135 142.287C41.2114 142.422 41.1826 142.555 41.129 142.679C41.0753 142.803 40.9978 142.916 40.9008 143.01L37.6652 146.145C37.5682 146.239 37.4536 146.313 37.328 146.363C37.2024 146.412 37.0682 146.437 36.9331 146.435C36.7981 146.433 36.6647 146.404 36.5407 146.35C36.4167 146.297 36.3045 146.219 36.2105 146.122L36.1652 146.075C36.0712 145.978 35.9972 145.864 35.9475 145.738C35.8978 145.613 35.8732 145.478 35.8754 145.343C35.8775 145.208 35.9062 145.075 35.9599 144.951C36.0135 144.827 36.0911 144.715 36.1881 144.621L39.4237 141.485C39.5207 141.391 39.6353 141.317 39.7609 141.268C39.8865 141.218 40.0206 141.193 40.1557 141.195C40.2908 141.198 40.4241 141.226 40.5481 141.28C40.6721 141.334 40.7843 141.411 40.8783 141.508L40.9236 141.555Z" fill="#050507"/>
<path d="M43.701 148.275C43.6472 148.395 43.5703 148.504 43.4746 148.594C43.379 148.685 43.2664 148.755 43.1434 148.802C43.0204 148.849 42.8893 148.872 42.7577 148.868C42.6261 148.864 42.4965 148.835 42.3763 148.781L42.2812 148.738C42.0384 148.63 41.8488 148.429 41.7539 148.181C41.659 147.932 41.6667 147.657 41.7753 147.414L43.4928 143.574C43.5465 143.454 43.6234 143.346 43.7191 143.255C43.8148 143.165 43.9273 143.094 44.0503 143.047C44.1734 143 44.3044 142.978 44.436 142.981C44.5677 142.985 44.6973 143.015 44.8175 143.068L44.9126 143.111C45.1553 143.22 45.345 143.42 45.4399 143.669C45.5347 143.917 45.527 144.193 45.4184 144.436L43.701 148.275Z" fill="#050507"/>
<path d="M54.3008 93.7267C54.2464 93.8451 54.2165 93.9733 54.2131 94.1036C54.2097 94.2338 54.2327 94.3634 54.2808 94.4846C54.3288 94.6057 54.401 94.7158 54.4928 94.8082C54.5847 94.9007 54.6943 94.9735 54.8151 95.0224C56.8292 95.8384 58.8128 96.6653 60.7661 97.503C81.36 106.345 93.3791 123.455 102.794 143.105C103.098 143.735 103.564 143.9 104.194 143.6L104.526 143.444C104.62 143.399 104.705 143.336 104.774 143.257C104.844 143.179 104.897 143.087 104.93 142.988C104.963 142.888 104.977 142.782 104.969 142.677C104.961 142.572 104.932 142.47 104.884 142.376L102.572 137.844C102.552 137.801 102.546 137.753 102.557 137.706C102.567 137.66 102.592 137.618 102.629 137.587C102.665 137.557 102.711 137.539 102.758 137.538C102.806 137.536 102.853 137.55 102.891 137.577C108.109 141.514 113.969 144.379 120.471 146.172C122.437 146.712 125.269 148.457 125.068 150.684C124.762 154.05 118.863 154.323 116.493 154.486C86.33 156.565 56.2714 155.695 26.317 151.875C19.9884 151.068 14.3109 149.551 8.43162 147.637C1.9598 145.527 -0.247392 138.02 5.11757 133.345C5.16189 133.307 5.21473 133.279 5.27174 133.265C5.32875 133.251 5.38831 133.251 5.44552 133.264C5.50273 133.277 5.55595 133.304 5.60081 133.342C5.64567 133.38 5.68088 133.428 5.70355 133.482C6.23745 134.693 6.96884 135.772 7.89772 136.718C7.95687 136.777 8.02746 136.822 8.10497 136.852C8.18249 136.882 8.26524 136.896 8.34794 136.892C8.43064 136.889 8.51148 136.868 8.5853 136.831C8.65912 136.794 8.72431 136.742 8.77669 136.679L8.97853 136.438C9.39088 135.939 9.40174 135.429 9.01108 134.908C4.27767 128.579 6.64763 118.351 10.0854 111.879C18.4649 96.0966 39.5732 86.7145 57.0549 88.6026C57.1824 88.6159 57.3026 88.6689 57.3984 88.7542C57.4942 88.8395 57.5608 88.9527 57.5888 89.0779L58.6631 93.922C58.6717 93.9591 58.67 93.9978 58.6582 94.034C58.6464 94.0702 58.6249 94.1024 58.5961 94.1273C58.5672 94.1521 58.5321 94.1686 58.4945 94.1748C58.457 94.1811 58.4185 94.177 58.3831 94.1629L55.3034 93.0235C55.144 92.9654 54.9685 92.9692 54.8117 93.0343C54.655 93.0995 54.5284 93.2211 54.457 93.3751L54.3008 93.7267ZM41.7643 111.708C41.9052 111.565 41.9165 111.306 41.7957 110.987C41.6748 110.668 41.4318 110.316 41.1201 110.007C40.8083 109.699 40.4534 109.46 40.1333 109.342C39.8133 109.225 39.5543 109.239 39.4134 109.381C39.2725 109.523 39.2612 109.783 39.382 110.101C39.5029 110.42 39.7459 110.773 40.0576 111.081C40.3694 111.39 40.7243 111.629 41.0444 111.746C41.3645 111.864 41.6234 111.85 41.7643 111.708ZM50.0866 114.355C50.3864 114.335 50.6577 114.065 50.8407 113.603C51.0237 113.141 51.1035 112.525 51.0625 111.891C51.0422 111.577 50.9929 111.268 50.9173 110.981C50.8417 110.695 50.7414 110.436 50.622 110.221C50.5027 110.006 50.3667 109.838 50.2217 109.727C50.0768 109.615 49.9258 109.563 49.7773 109.573C49.4775 109.592 49.2062 109.863 49.0232 110.325C48.8402 110.787 48.7604 111.403 48.8014 112.037C48.8217 112.351 48.8711 112.66 48.9467 112.946C49.0222 113.233 49.1226 113.491 49.2419 113.706C49.3612 113.921 49.4973 114.089 49.6422 114.201C49.7871 114.312 49.9381 114.364 50.0866 114.355ZM39.6652 114.075C39.7402 114.015 39.7814 113.914 39.7865 113.778C39.7916 113.643 39.7605 113.476 39.6949 113.287C39.6293 113.098 39.5306 112.891 39.4044 112.677C39.2781 112.463 39.1268 112.246 38.9591 112.04C38.6204 111.623 38.2355 111.272 37.8889 111.065C37.5423 110.857 37.2626 110.81 37.1111 110.933C37.0362 110.994 36.9949 111.095 36.9899 111.23C36.9848 111.365 37.0159 111.532 37.0815 111.721C37.147 111.91 37.2457 112.117 37.372 112.331C37.4982 112.545 37.6495 112.762 37.8172 112.968C38.1559 113.385 38.5409 113.736 38.8875 113.943C39.234 114.151 39.5138 114.199 39.6652 114.075ZM59.1839 122.882L56.2475 125.513C56.1743 125.579 56.0885 125.63 55.9953 125.662C55.9021 125.694 55.8034 125.707 55.705 125.7C55.6066 125.694 55.5105 125.667 55.4225 125.623C55.3345 125.578 55.2564 125.517 55.1928 125.441C53.8906 123.905 52.5797 122.294 51.2602 120.61C50.7133 119.913 50.6091 119.282 50.85 118.475C50.9089 118.28 50.9201 118.075 50.8827 117.875C50.8453 117.676 50.7604 117.489 50.6352 117.329C50.51 117.169 50.3482 117.042 50.1635 116.958C49.9787 116.874 49.7765 116.836 49.5739 116.847C48.2131 116.912 46.5073 118.494 45.5827 119.536C45.4461 119.688 45.3557 119.876 45.322 120.077C45.2884 120.279 45.3128 120.486 45.3926 120.675C45.4723 120.864 45.6041 121.026 45.7725 121.144C45.941 121.261 46.1393 121.329 46.3445 121.339C47.0607 121.37 47.7508 121.274 48.4149 121.053C48.5048 121.024 48.6014 121.022 48.692 121.049C48.7826 121.076 48.8631 121.129 48.9228 121.203L53.4999 126.802C53.5268 126.834 53.5461 126.872 53.5565 126.913C53.5668 126.953 53.568 126.996 53.5599 127.038C53.5519 127.079 53.5347 127.119 53.5097 127.153C53.4848 127.188 53.4525 127.217 53.4153 127.238L50.1533 129.042C50.0643 129.09 49.986 129.157 49.9233 129.236C49.8606 129.316 49.8147 129.408 49.7886 129.506C49.7624 129.604 49.7564 129.706 49.771 129.807C49.7855 129.907 49.8204 130.003 49.8734 130.09L49.9776 130.259C50.3422 130.858 50.8435 131.012 51.4816 130.722C55.1146 129.085 58.3419 126.854 61.1632 124.028C61.3455 123.85 61.5409 123.831 61.7492 123.97C66.1506 126.887 70.8167 129.291 75.7476 131.184C75.9635 131.267 76.2028 131.266 76.4177 131.18C76.6326 131.094 76.8072 130.93 76.9066 130.722L77.0498 130.416C77.096 130.318 77.1221 130.213 77.1264 130.106C77.1307 129.998 77.1131 129.891 77.0748 129.791C77.0364 129.69 76.9781 129.598 76.9033 129.521C76.8285 129.444 76.7388 129.383 76.6396 129.341C67.1663 125.298 59.223 121.567 54.444 111.899C54.1966 111.399 53.8233 111.274 53.3241 111.521L52.9921 111.677C52.8079 111.77 52.665 111.928 52.5915 112.121C52.518 112.314 52.5193 112.527 52.5949 112.719C53.9752 116.196 56.3387 119.581 59.1579 121.886C59.5572 122.212 59.5659 122.544 59.1839 122.882ZM39.4234 125.194C39.4234 124.546 39.1662 123.925 38.7083 123.467C38.2504 123.009 37.6294 122.752 36.9818 122.752C36.3343 122.752 35.7133 123.009 35.2554 123.467C34.7975 123.925 34.5402 124.546 34.5402 125.194C34.5402 125.841 34.7975 126.462 35.2554 126.92C35.7133 127.378 36.3343 127.635 36.9818 127.635C37.6294 127.635 38.2504 127.378 38.7083 126.92C39.1662 126.462 39.4234 125.841 39.4234 125.194ZM71.2356 143.034C74.0222 143.229 80.2922 144.277 79.1333 148.49C78.3064 151.478 71.483 150.925 68.9828 150.404C68.2883 150.256 67.902 150.534 67.8239 151.237L67.7978 151.498C67.7759 151.689 67.8237 151.882 67.9325 152.041C68.0413 152.2 68.2039 152.315 68.3903 152.364C72.3554 153.399 82.4864 153.64 81.3274 146.849C80.5592 142.35 75.2723 141.002 71.0663 141.009C70.5541 141.009 70.2958 141.265 70.2915 141.777L70.285 142.005C70.2763 142.643 70.5932 142.986 71.2356 143.034ZM40.8783 141.508C40.7843 141.411 40.6721 141.333 40.5481 141.28C40.4241 141.226 40.2908 141.197 40.1557 141.195C40.0207 141.193 39.8865 141.218 39.7609 141.267C39.6353 141.317 39.5207 141.391 39.4237 141.485L36.1881 144.62C36.0911 144.715 36.0135 144.827 35.9599 144.951C35.9062 145.075 35.8775 145.208 35.8754 145.343C35.8733 145.478 35.8978 145.612 35.9475 145.738C35.9972 145.864 36.0712 145.978 36.1652 146.075L36.2105 146.122C36.3046 146.219 36.4168 146.296 36.5407 146.35C36.6647 146.404 36.7981 146.432 36.9331 146.435C37.0682 146.437 37.2024 146.412 37.328 146.362C37.4536 146.313 37.5682 146.239 37.6652 146.145L40.9008 143.009C40.9978 142.915 41.0754 142.803 41.129 142.679C41.1827 142.555 41.2114 142.422 41.2135 142.287C41.2156 142.152 41.1911 142.017 41.1414 141.892C41.0916 141.766 41.0177 141.652 40.9236 141.555L40.8783 141.508ZM45.4184 144.435C45.527 144.193 45.5347 143.917 45.4399 143.668C45.345 143.42 45.1553 143.219 44.9126 143.111L44.8175 143.068C44.6973 143.014 44.5677 142.985 44.436 142.981C44.3044 142.977 44.1734 143 44.0504 143.047C43.9273 143.094 43.8148 143.164 43.7191 143.255C43.6234 143.345 43.5465 143.454 43.4928 143.574L41.7753 147.413C41.6667 147.656 41.659 147.932 41.7539 148.181C41.8488 148.429 42.0384 148.63 42.2812 148.738L42.3763 148.781C42.4965 148.834 42.6261 148.864 42.7577 148.868C42.8893 148.871 43.0204 148.849 43.1434 148.802C43.2664 148.755 43.379 148.684 43.4746 148.594C43.5703 148.503 43.6472 148.395 43.701 148.275L45.4184 144.435Z" fill="#D3D4C7"/>
<path d="M141.371 62.1693C140.98 62.2084 140.783 62.3885 140.778 62.7097C140.761 64.1117 140.674 65.6375 140.518 67.2869C139.993 68.1941 139.285 68.5522 138.395 68.3612C137.532 67.836 136.39 67.6515 134.971 67.8077C134.815 67.8255 134.668 67.889 134.549 67.99C134.431 68.0911 134.346 68.2249 134.306 68.3742L133.304 71.9682L130.602 75.3994L126.506 75.5036C126.272 75.5079 126.107 75.6165 126.012 75.8292C125.282 77.4438 124.874 79.1367 124.788 80.9076C124.775 81.1507 124.647 81.2723 124.403 81.2723L118.713 81.2657C118.499 81.2657 118.293 81.3508 118.142 81.5022C117.991 81.6536 117.906 81.859 117.906 82.0731V88.6621C116.467 90.8042 114.377 89.6192 112.495 89.2806C110.158 88.8509 106.687 86.9302 105.411 85.7192C103.321 83.7399 101.101 82.034 99.5905 79.5924C98.3664 77.6045 97.2335 75.5665 96.1918 73.4787C95.6318 72.3458 95.3779 70.8093 94.7854 69.5006C94.1213 68.0421 94.1083 66.3623 93.8023 64.7997C93.7589 64.5784 93.8218 64.3939 93.9911 64.2463C94.7203 63.6082 95.5342 63.2132 96.4327 63.0613L98.9915 63.0222C99.0935 63.0206 99.1922 62.9861 99.2731 62.924C99.354 62.8618 99.4128 62.7753 99.4407 62.6772C100.005 60.7065 100.287 58.699 100.287 56.6546C100.287 56.3768 100.424 56.2379 100.697 56.2379L107.045 56.1923C107.172 56.1907 107.292 56.1403 107.382 56.0517C107.472 55.9631 107.524 55.8432 107.527 55.717L107.69 48.5486C107.691 48.5067 107.701 48.4656 107.72 48.4282C107.739 48.3908 107.766 48.3581 107.799 48.3324C107.832 48.3068 107.87 48.289 107.911 48.2802C107.952 48.2714 107.994 48.2719 108.035 48.2816C109.593 48.6506 111.215 48.8524 112.899 48.8871C115.998 48.9522 114.188 43.8933 113.843 42.3111C113.682 41.5819 113.973 41.2672 114.715 41.3671C116.99 41.6666 119.258 41.6297 121.519 41.2564C121.628 41.2388 121.725 41.1789 121.79 41.0899C121.854 41.0008 121.881 40.8898 121.864 40.7811L121.421 37.7991C121.721 37.4909 121.953 37.1176 122.118 36.6792C122.196 36.4752 122.342 36.3906 122.554 36.4253C124.449 36.7118 126.292 36.7769 128.082 37.3368C130.179 37.9922 132.195 38.7258 134.131 39.5375C134.275 39.5971 134.405 39.685 134.513 39.7958C134.622 39.9066 134.707 40.038 134.762 40.1821C136.071 43.5938 136.644 47.344 137.861 50.7883C138.977 53.9483 140.056 57.1212 141.097 60.3072C141.299 60.9257 141.123 61.5313 141.371 62.1693Z" fill="black"/>
<path d="M121.421 37.7988L121.864 40.7808C121.881 40.8895 121.854 41.0005 121.79 41.0896C121.725 41.1786 121.628 41.2385 121.519 41.2561C119.258 41.6294 116.99 41.6663 114.715 41.3668C113.973 41.267 113.682 41.5816 113.843 42.3109C114.188 43.893 115.998 48.952 112.899 48.8869C111.215 48.8521 109.593 48.6503 108.035 48.2813C107.994 48.2716 107.952 48.2711 107.911 48.2799C107.87 48.2887 107.832 48.3066 107.799 48.3322C107.765 48.3578 107.739 48.3905 107.72 48.4279C107.701 48.4653 107.691 48.5064 107.69 48.5483L107.527 55.7168C107.524 55.8429 107.472 55.9628 107.382 56.0514C107.292 56.14 107.172 56.1904 107.045 56.1921L100.697 56.2376C100.424 56.2376 100.287 56.3765 100.287 56.6543C100.287 58.6988 100.005 60.7063 99.4407 62.6769C99.4127 62.775 99.354 62.8615 99.2731 62.9237C99.1922 62.9858 99.0934 63.0203 98.9914 63.022L96.4326 63.061L93.8999 63.1392C93.7847 63.1427 93.6726 63.1004 93.5875 63.0214C93.5024 62.9423 93.4509 62.8328 93.4442 62.716C93.0665 56.9343 94.4034 51.6062 97.4549 46.7318C102.499 38.6713 110.108 34.921 120.282 35.4809C120.52 35.4955 120.746 35.5925 120.921 35.7552C121.095 35.9179 121.208 36.1363 121.239 36.3729L121.421 37.7988Z" fill="white"/>
<path d="M188.92 51.5629C190.665 54.7055 192.978 57.045 195.86 58.5816C193.903 61.9976 192.477 64.9232 191.583 67.3583C190.636 69.9409 189.751 72.0635 188.926 73.7259C188.877 73.8264 188.855 73.9377 188.861 74.0492C188.866 74.1607 188.9 74.2689 188.959 74.3633C189.017 74.4578 189.099 74.5356 189.196 74.5892C189.293 74.6429 189.401 74.6707 189.512 74.67H189.844C190.587 74.67 191.114 74.3358 191.426 73.6673L198.139 59.3434L200.229 59.7145C201.557 59.5929 201.831 60.2636 201.049 61.7264C199.598 64.4609 198.575 67.4299 197.117 70.2035C197.024 70.3809 196.99 70.5817 197.019 70.7765L197.195 71.9484L175.937 82.1314L188.92 51.5629Z" fill="#E4E7EF"/>
<path d="M141.371 62.1691C141.605 62.3058 141.833 62.5076 141.937 62.7876C142.445 64.1636 142.981 65.5612 143.545 66.9806C143.624 67.1759 143.563 67.2975 143.363 67.3452C142.261 67.6057 141.312 67.5861 140.518 67.2866C140.674 65.6372 140.761 64.1115 140.778 62.7095C140.783 62.3883 140.98 62.2081 141.371 62.1691Z" fill="white"/>
<path d="M138.395 68.3609C135.941 69.559 135.153 70.6853 133.304 71.968L134.306 68.374C134.346 68.2247 134.431 68.0908 134.549 67.9898C134.668 67.8888 134.815 67.8252 134.971 67.8075C136.39 67.6513 137.532 67.8357 138.395 68.3609Z" fill="white"/>
<path d="M111.31 101.957C106.37 99.2962 102.481 96.2774 99.6425 92.9004C92.5001 84.4037 86.9723 75.4122 81.5097 65.5742C75.9494 55.5605 72.707 44.0037 77.1018 33.9378C77.8571 32.2146 78.9488 30.4871 80.3768 28.7552C81.653 27.2099 82.992 25.643 84.394 24.0543C87.9663 23.1341 91.8837 22.8151 96.1462 23.0972C108.491 23.9111 121.076 27.4791 132.601 31.8413C132.651 31.8616 132.696 31.8934 132.732 31.934C132.769 31.9747 132.795 32.0232 132.809 32.0757L134.189 37.3951C134.195 37.4167 134.195 37.4395 134.188 37.4608C134.181 37.4821 134.169 37.5011 134.151 37.5154C134.134 37.5298 134.114 37.539 134.091 37.5419C134.069 37.5448 134.047 37.5413 134.026 37.5319C120.601 31.0666 105.209 31.2358 96.1918 44.6092C87.8643 56.9473 90.5794 73.1529 100.274 84.1302C105.952 90.563 114.11 94.2351 122.587 90.856C123.025 90.6824 123.479 90.5565 123.948 90.4783C124.143 90.448 124.197 90.5217 124.11 90.6997C121.328 96.3251 117.061 100.078 111.31 101.957ZM98.5383 27.8797C98.5222 27.7318 98.4772 27.5885 98.4057 27.458C98.3343 27.3275 98.2378 27.2123 98.1219 27.1191C98.0059 27.0259 97.8727 26.9564 97.7299 26.9147C97.5871 26.8729 97.4375 26.8597 97.2896 26.8758L96.9401 26.9137C96.7922 26.9298 96.6489 26.9748 96.5184 27.0463C96.3879 27.1177 96.2728 27.2142 96.1795 27.3301C96.0863 27.4461 96.0169 27.5792 95.9751 27.722C95.9333 27.8648 95.9201 28.0145 95.9362 28.1624L95.9938 28.6931C96.0099 28.841 96.0549 28.9843 96.1264 29.1148C96.1978 29.2453 96.2943 29.3605 96.4102 29.4537C96.5262 29.5469 96.6594 29.6164 96.8022 29.6582C96.945 29.6999 97.0946 29.7131 97.2425 29.6971L97.592 29.6591C97.7399 29.643 97.8832 29.598 98.0137 29.5265C98.1442 29.4551 98.2593 29.3586 98.3526 29.2427C98.4458 29.1267 98.5152 28.9936 98.557 28.8508C98.5988 28.708 98.612 28.5583 98.5959 28.4104L98.5383 27.8797ZM88.9321 36.3794C88.9321 36.1956 88.8959 36.0136 88.8256 35.8437C88.7552 35.6739 88.6521 35.5196 88.5221 35.3896C88.3921 35.2596 88.2378 35.1565 88.068 35.0861C87.8981 35.0158 87.7161 34.9796 87.5323 34.9796C87.161 34.9796 86.805 35.1271 86.5424 35.3896C86.2799 35.6521 86.1324 36.0082 86.1324 36.3794C86.1324 36.7507 86.2799 37.1067 86.5424 37.3693C86.805 37.6318 87.161 37.7793 87.5323 37.7793C87.7161 37.7793 87.8981 37.7431 88.068 37.6727C88.2378 37.6024 88.3921 37.4993 88.5221 37.3693C88.6521 37.2393 88.7552 37.085 88.8256 36.9151C88.8959 36.7453 88.9321 36.5633 88.9321 36.3794Z" fill="white"/>
<path d="M196.043 152.319C195.639 152.288 195.437 152.095 195.437 151.739C195.352 143.549 178.47 135.527 172.31 132.578C166.587 129.843 160.272 128.45 154.08 126.744C149.904 125.589 146.152 123.714 142.823 121.119C147.354 115.428 151.378 108.607 154.894 100.655C156.569 96.8699 157.39 93.3475 157.355 90.0877C157.355 89.9141 157.442 89.8273 157.615 89.8273C161.153 89.849 164.708 89.1284 168.28 87.6656C178.303 83.5638 188.694 78.7457 199.454 73.2115C201.234 72.2956 202.736 71.3298 203.96 70.3141C204.138 70.1622 204.29 70.1861 204.416 70.3858C206.851 74.2532 208.615 72.8599 212.196 73.4524C217.83 74.3813 222.917 75.6987 227.458 77.4045C238.611 81.5975 241.977 97.432 238.487 107.459C238.471 107.507 238.442 107.55 238.404 107.584C238.365 107.618 238.318 107.641 238.268 107.65C238.217 107.66 238.164 107.657 238.115 107.64C238.065 107.624 238.021 107.595 237.986 107.556C233.213 102.126 227.979 100.661 220.419 99.2811C215.523 98.3869 210.575 97.9485 205.575 97.9659C205.539 97.9668 205.503 97.9603 205.47 97.9468C205.437 97.9333 205.406 97.9131 205.381 97.8874C205.356 97.8618 205.337 97.8312 205.324 97.7976C205.311 97.7641 205.306 97.7282 205.308 97.6924L205.535 90.9211C205.543 90.6977 205.467 90.4796 205.324 90.3089C205.181 90.1382 204.981 90.0269 204.761 89.9966L204.377 89.9445C203.773 89.862 203.463 90.1268 203.446 90.7388L203.205 99.4894C203.202 99.5845 203.219 99.6791 203.254 99.7673C203.29 99.8556 203.343 99.9355 203.411 100.002C203.479 100.069 203.56 100.121 203.649 100.155C203.737 100.188 203.832 100.204 203.927 100.199C212.261 99.8258 220.482 100.909 228.591 103.448C233.376 104.952 237.419 109.523 239.666 114.282C243.266 121.913 240.603 130.637 235.127 136.595C231.559 140.475 226.993 143.501 221.429 145.671C213.255 148.857 204.793 151.073 196.043 152.319Z" fill="white"/>
<path d="M130.602 75.3992C129.156 78.3812 127.85 81.4174 126.682 84.5079C125.419 87.8415 121.727 89.4692 118.407 89.8924C118.185 89.9228 118.042 89.8295 117.977 89.6124C117.899 89.3607 117.875 89.0438 117.906 88.6618V82.0728C117.906 81.8587 117.991 81.6533 118.142 81.5019C118.293 81.3505 118.499 81.2655 118.713 81.2655L124.403 81.272C124.646 81.272 124.775 81.1505 124.788 80.9074C124.874 79.1364 125.282 77.4436 126.012 75.8289C126.107 75.6162 126.272 75.5077 126.506 75.5033L130.602 75.3992Z" fill="white"/>
<path fill-rule="evenodd" clip-rule="evenodd" d="M84.394 24.0547C82.992 25.6433 81.6529 27.2103 80.3768 28.7555C78.9488 30.4874 77.8571 32.215 77.1018 33.9382C72.707 44.004 75.9494 55.5608 81.5097 65.5746C86.9723 75.4125 92.5001 84.4041 99.6425 92.9007C102.481 96.2777 106.37 99.2966 111.31 101.957C110.325 102.114 110.004 102.775 110.346 103.943C110.676 104.299 111.156 104.362 111.785 104.132C119.151 101.471 124.26 96.4944 127.112 89.2022C128.197 86.4243 129.289 83.6658 130.387 80.9269C132.685 74.6766 137.197 69.4622 144.008 69.5143C144.123 69.5146 144.235 69.5497 144.329 69.6148C144.423 69.68 144.495 69.7721 144.535 69.8789C146.228 74.3801 148.049 78.8357 149.998 83.2457C151.018 85.5506 152.509 87.3693 154.471 88.7018C154.633 88.8117 154.77 88.9562 154.87 89.1251C154.97 89.294 155.032 89.483 155.05 89.6785C155.512 94.9392 153.377 99.6792 150.662 104.627C144.144 118.573 133.349 131.946 116.623 132.695C116.524 132.699 116.426 132.723 116.336 132.765C116.246 132.807 116.165 132.866 116.098 132.939C116.031 133.012 115.979 133.098 115.945 133.191C115.911 133.284 115.896 133.384 115.9 133.483L115.907 133.717C115.933 134.347 116.26 134.661 116.89 134.661C119.663 134.666 121.766 134.451 123.199 134.017C131.09 131.642 137.631 127.343 142.823 121.119C146.152 123.714 149.904 125.589 154.08 126.744C155.24 127.063 156.404 127.372 157.568 127.681C162.617 129.019 167.659 130.355 172.31 132.578L172.451 132.645C178.723 135.648 195.353 143.61 195.437 151.739C195.437 152.095 195.639 152.288 196.043 152.319C173.639 155.75 149.672 153.992 127.49 149.76C127.277 149.717 127.134 149.593 127.06 149.389C126.192 146.88 124.46 145.204 121.864 144.362C113.537 141.654 102.735 137.506 97.9302 129.439C88.9842 114.406 77.7139 102.322 61.658 95.5243C61.4971 95.456 61.3547 95.3501 61.2426 95.2154C61.1305 95.0806 61.052 94.9209 61.0135 94.7495C56.814 75.9982 52.9139 51.9014 66.6128 35.6698C70.7602 30.2462 77.4469 25.1355 84.394 24.0547ZM106.427 104.587C106.605 104.084 106.496 103.744 106.101 103.566C105.902 103.474 105.713 103.496 105.535 103.631C103.035 105.562 100.843 107.874 98.9589 110.565C99.0717 110.977 99.2693 111.163 99.5514 111.124C99.8343 111.091 100.093 110.967 100.287 110.773L106.427 104.587ZM78.2584 75.2086C79.3146 74.9706 80.227 74.2959 80.7948 73.3331C81.3626 72.3703 81.5393 71.1982 81.2861 70.0746C81.1607 69.5183 80.9336 68.9906 80.6176 68.5217C80.3016 68.0528 79.903 67.6519 79.4446 67.3418C78.9861 67.0318 78.4768 66.8186 77.9456 66.7146C77.4145 66.6106 76.8719 66.6177 76.3489 66.7356C75.2927 66.9736 74.3804 67.6482 73.8126 68.611C73.2448 69.5739 73.068 70.746 73.3212 71.8696C73.4466 72.4259 73.6738 72.9536 73.9897 73.4225C74.3057 73.8914 74.7043 74.2923 75.1628 74.6024C75.6212 74.9124 76.1306 75.1255 76.6617 75.2296C77.1929 75.3336 77.7355 75.3265 78.2584 75.2086ZM101.471 100.419C101.528 100.349 101.571 100.268 101.597 100.181C101.623 100.094 101.632 100.003 101.622 99.913C101.613 99.8229 101.586 99.7354 101.543 99.6557C101.5 99.576 101.441 99.5055 101.371 99.4483L101.351 99.432C101.209 99.3165 101.027 99.2622 100.845 99.281C100.662 99.2999 100.495 99.3902 100.38 99.5323L95.2224 105.878C95.1652 105.949 95.1225 106.03 95.0966 106.117C95.0707 106.203 95.0622 106.295 95.0715 106.385C95.0808 106.475 95.1078 106.562 95.1509 106.642C95.194 106.722 95.2524 106.792 95.3227 106.849L95.343 106.866C95.485 106.981 95.6671 107.036 95.8492 107.017C96.0312 106.998 96.1984 106.908 96.3138 106.765L101.471 100.419Z" fill="url(#paint0_radial_1_256)"/>
<path d="M198.667 29.5756C194.278 27.3554 190.73 29.9076 189.017 33.8597C185.625 41.6858 190.723 57.0515 200.372 57.5528C203.354 57.7026 206.017 56.4786 207.43 53.8677C210.041 49.0561 208.068 42.1937 205.841 37.4993C204.049 33.723 201.657 31.0818 198.667 29.5756Z" fill="url(#paint1_radial_1_256)"/>
<path d="M188.92 51.5624L175.937 82.131C171.696 84.0626 167.234 85.7684 162.551 87.2486C154.139 89.905 151.704 82.4501 149.015 75.7308C141.996 58.1949 136.527 40.1879 132.607 21.71C131.689 17.3933 134.482 15.2122 138.187 13.6952C150.501 8.63837 163.208 4.91414 176.308 2.52248C179.87 1.87139 183.132 2.90011 184.518 6.40296C187.188 13.1743 189.853 19.9499 192.514 26.7299C192.543 26.8041 192.545 26.8864 192.519 26.9617C192.492 27.037 192.44 27.1004 192.37 27.1401C183.457 32.1991 184.909 43.9122 188.92 51.5624ZM174.426 5.51748C175.39 5.27658 176.503 5.3482 177.428 5.15938C178.643 4.91197 178.635 4.73184 177.402 4.61898C177.02 4.58425 176.382 4.65153 175.488 4.82082C172.154 5.4502 168.825 6.10563 165.5 6.7871C164.497 6.99545 163.338 7.42517 162.193 7.627C161.064 7.82233 160.237 8.00464 159.712 8.17393C152.654 10.4614 145.703 13.3023 138.858 16.6967C138.549 16.8486 138.393 17.096 138.389 17.4389V17.6473C138.388 17.6907 138.399 17.7335 138.419 17.7719C138.44 17.8102 138.469 17.8428 138.506 17.8668C138.542 17.8907 138.584 17.9052 138.627 17.9089C138.67 17.9127 138.714 17.9055 138.753 17.8882C141.037 16.8291 143.157 15.8937 145.115 15.082C151.534 12.4125 158.062 10.0534 164.699 8.00464C167.779 7.06056 171.171 6.32483 174.426 5.51748ZM144.73 22.7909C144.73 22.2331 144.509 21.6982 144.114 21.3038C143.72 20.9094 143.185 20.6878 142.627 20.6878C142.07 20.6878 141.535 20.9094 141.14 21.3038C140.746 21.6982 140.524 22.2331 140.524 22.7909C140.524 23.3486 140.746 23.8835 141.14 24.2779C141.535 24.6723 142.07 24.8939 142.627 24.8939C143.185 24.8939 143.72 24.6723 144.114 24.2779C144.509 23.8835 144.73 23.3486 144.73 22.7909ZM157.746 84.1429C155.942 83.7132 154.301 81.2911 153.761 79.6308C147.484 60.3521 141.084 41.1515 135.433 21.5994C135.42 21.5556 135.396 21.5159 135.364 21.4841C135.331 21.4524 135.291 21.4299 135.247 21.4187C135.202 21.4075 135.156 21.408 135.112 21.4203C135.068 21.4326 135.029 21.4562 134.997 21.4887L134.834 21.6514C134.599 21.8902 134.53 22.1723 134.625 22.4979C140.824 42.9811 146.862 62.0298 152.739 79.6439C153.429 81.7078 155.271 84.6507 157.602 85.0544C157.832 85.0935 158.002 85.011 158.11 84.807C158.175 84.6811 158.178 84.5401 158.117 84.3838C158.086 84.31 158.034 84.2536 157.96 84.2145C157.895 84.1841 157.824 84.1603 157.746 84.1429ZM166.106 44.739C166.045 45.2903 165.78 45.7439 165.311 46.0998C165.229 46.1619 165.165 46.2451 165.126 46.3406C165.087 46.4362 165.074 46.5404 165.09 46.6425C165.105 46.7445 165.148 46.8405 165.213 46.9203C165.278 47.0001 165.364 47.0608 165.461 47.096C168.955 48.3982 171.833 47.7058 174.094 45.019C174.492 44.5437 174.648 43.834 174.973 43.2545C175.023 43.1636 175.097 43.0874 175.187 43.0337C175.277 42.9799 175.381 42.9506 175.488 42.9485L177.806 42.9225C177.882 42.9215 177.957 42.9029 178.024 42.8682C178.092 42.8336 178.151 42.7837 178.196 42.7226C178.242 42.6615 178.272 42.5908 178.286 42.5159C178.299 42.4411 178.295 42.3641 178.274 42.2909C177.936 41.0734 177.395 38.0133 176.556 37.271C176.424 37.1555 176.269 37.0691 176.101 37.0176C175.934 36.966 175.757 36.9505 175.583 36.972C175.409 36.9936 175.242 37.0516 175.092 37.1424C174.942 37.2332 174.813 37.3547 174.713 37.4989L173.808 38.8076C173.779 38.8502 173.741 38.8865 173.698 38.9145C173.654 38.9425 173.606 38.9615 173.555 38.9706C173.504 38.9797 173.452 38.9786 173.401 38.9674C173.351 38.9562 173.303 38.9351 173.261 38.9053C169.068 35.9624 163.039 38.4495 163.208 43.7819C163.212 43.8888 163.238 43.9938 163.284 44.0901C163.331 44.1864 163.397 44.2719 163.479 44.3412C163.56 44.4104 163.655 44.4619 163.758 44.4923C163.86 44.5227 163.968 44.5313 164.074 44.5177L165.682 44.3158C165.74 44.3084 165.798 44.3142 165.853 44.3328C165.908 44.3514 165.957 44.3824 165.998 44.4233C166.039 44.4642 166.07 44.5139 166.089 44.5686C166.107 44.6234 166.113 44.6817 166.106 44.739Z" fill="#CFCFCF"/>
<path d="M195.86 58.5812L198.139 59.3429L191.426 73.6669C191.114 74.3353 190.587 74.6696 189.844 74.6696H189.512C189.402 74.6702 189.293 74.6424 189.196 74.5888C189.099 74.5351 189.017 74.4574 188.959 74.3629C188.9 74.2684 188.866 74.1603 188.861 74.0488C188.855 73.9373 188.877 73.826 188.926 73.7255C189.751 72.063 190.636 69.9405 191.583 67.3578C192.477 64.9228 193.903 61.9972 195.86 58.5812Z" fill="#CFCFCF"/>
<path d="M200.229 59.714C203.146 59.2127 204.937 61.817 204.683 64.4735C204.324 68.1912 200.34 70.6328 197.195 71.948L197.019 70.776C196.99 70.5812 197.024 70.3804 197.117 70.203C198.575 67.4294 199.598 64.4605 201.05 61.7259C201.831 60.2631 201.557 59.5925 200.229 59.714Z" fill="#CFCFCF"/>
<path d="M174.427 5.51723C171.171 6.32458 167.779 7.06031 164.699 8.00439C158.062 10.0531 151.534 12.4123 145.115 15.0817C143.157 15.8934 141.037 16.8288 138.753 17.8879C138.714 17.9053 138.67 17.9124 138.627 17.9087C138.584 17.9049 138.542 17.8905 138.506 17.8665C138.469 17.8426 138.44 17.8099 138.419 17.7716C138.399 17.7333 138.388 17.6904 138.389 17.647V17.4387C138.393 17.0957 138.549 16.8483 138.858 16.6964C145.703 13.3021 152.654 10.4612 159.712 8.17368C160.237 8.00439 161.064 7.82208 162.193 7.62675C163.339 7.42492 164.497 6.9952 165.5 6.78685C168.825 6.10538 172.154 5.44995 175.488 4.82057C176.382 4.65128 177.02 4.584 177.402 4.61873C178.635 4.73158 178.643 4.91172 177.428 5.15913C176.504 5.34795 175.39 5.27633 174.427 5.51723Z" fill="#7A7A79"/>
<path d="M157.746 84.1426C157.824 84.16 157.895 84.1839 157.96 84.2142C158.034 84.2533 158.086 84.3097 158.117 84.3835C158.178 84.5398 158.175 84.6809 158.11 84.8067C158.002 85.0107 157.832 85.0932 157.602 85.0542C155.271 84.6505 153.429 81.7076 152.739 79.6436C146.862 62.0295 140.824 42.9808 134.625 22.4976C134.53 22.1721 134.599 21.8899 134.834 21.6512L134.997 21.4884C135.029 21.4559 135.068 21.4323 135.112 21.4201C135.156 21.4078 135.202 21.4072 135.247 21.4184C135.291 21.4296 135.331 21.4522 135.364 21.4839C135.396 21.5156 135.42 21.5553 135.433 21.5991C141.084 41.1513 147.484 60.3519 153.761 79.6306C154.301 81.2909 155.942 83.7129 157.746 84.1426Z" fill="#7A7A79"/>
<defs>
<radialGradient id="paint0_radial_1_256" cx="0" cy="0" r="1" gradientUnits="userSpaceOnUse" gradientTransform="translate(120.602 148.881) rotate(-84.53) scale(128.963 292.13)">
<stop stop-color="#00FF94"/>
<stop offset="0.494792" stop-color="#FF00F5"/>
<stop offset="1" stop-color="#FF7A00"/>
</radialGradient>
<radialGradient id="paint1_radial_1_256" cx="0" cy="0" r="1" gradientUnits="userSpaceOnUse" gradientTransform="translate(120.602 148.881) rotate(-84.53) scale(128.963 292.13)">
<stop stop-color="#00FF94"/>
<stop offset="0.494792" stop-color="#FF00F5"/>
<stop offset="1" stop-color="#FF7A00"/>
</radialGradient>
</defs>
</svg>
