<svg width="132" height="34" viewBox="0 0 132 34" fill="none" xmlns="http://www.w3.org/2000/svg">
<path d="M13.7411 2.50583C18.665 1.79772 24.5895 2.4503 27.7711 6.65042C30.9152 10.8031 32.6479 15.7487 32.9692 21.4873C33.2338 26.2055 31.776 30.4133 26.3965 30.7448C21.1878 31.0643 7.4846 32.4761 3.73145 28.5391C0.969794 25.631 1.14854 20.0295 1.60694 16.1552C2.41122 9.42577 6.923 3.47384 13.7411 2.50583Z" fill="black"/>
<path d="M9.25207 8.23696C8.83225 8.96709 8.30656 9.61478 7.675 10.18C7.46427 10.3702 7.22837 10.4095 6.9673 10.298C6.37746 10.0561 5.85586 9.71471 5.40249 9.27386C5.19047 9.06592 5.16379 8.83689 5.32245 8.58677C7.34761 5.37914 10.0778 3.5537 13.5129 3.11043C18.5753 2.45903 24.6508 2.79066 27.4757 7.61815C27.5963 7.82602 27.5617 8.00478 27.3719 8.15441L25.144 9.93979C25.0281 10.0313 24.8882 10.0869 24.7418 10.0997C24.5955 10.1125 24.449 10.0819 24.3207 10.0118C23.3049 9.46136 22.4211 8.74909 21.6695 7.87498C21.6228 7.82126 21.5652 7.77818 21.5005 7.74865C21.4358 7.71913 21.3655 7.70385 21.2944 7.70385C21.2232 7.70384 21.1529 7.71912 21.0882 7.74864C21.0235 7.77816 20.9659 7.82124 20.9192 7.87496L18.8463 10.2595C18.5793 10.5613 18.3065 10.5721 18.0277 10.2917L15.4329 7.67757C15.3939 7.63886 15.3467 7.60938 15.2946 7.5912C15.2426 7.57303 15.187 7.56659 15.1317 7.57235C15.0765 7.57812 15.0229 7.59594 14.9747 7.62456C14.9266 7.65318 14.885 7.69191 14.853 7.73803L13.2823 10.0368C13.2282 10.116 13.1579 10.1829 13.0761 10.233C12.9943 10.2832 12.9029 10.3155 12.8077 10.3279C12.7126 10.3402 12.6159 10.3324 12.524 10.3047C12.4322 10.2771 12.3471 10.2304 12.2746 10.1676L9.91906 8.12227C9.65057 7.89152 9.42824 7.92976 9.25207 8.23696Z" fill="white"/>
<path d="M16.4538 27.2072L17.7192 25.308C17.804 25.181 17.9153 25.0739 18.0455 24.9941C18.1756 24.9143 18.3215 24.8635 18.4731 24.8455C18.6247 24.8274 18.7785 24.8423 18.9238 24.8893C19.069 24.9363 19.2024 25.0142 19.3147 25.1176L21.3933 27.0495C21.7132 27.3455 22.0012 27.3204 22.2573 26.9743L23.463 25.3745C23.5576 25.2507 23.6759 25.1469 23.8108 25.0692C23.9457 24.9916 24.0946 24.9416 24.2487 24.9223C24.4028 24.9029 24.559 24.9146 24.7081 24.9566C24.8572 24.9986 24.9963 25.0701 25.1171 25.1668L28.5064 27.8831C28.6315 27.9833 28.7229 28.1194 28.7683 28.2732C28.8137 28.4269 28.811 28.5908 28.7605 28.7429C28.71 28.8951 28.6142 29.0281 28.4858 29.1241C28.3575 29.2202 28.2028 29.2746 28.0427 29.2802C22.9491 29.4681 18.0711 29.5605 13.4088 29.5574C10.6286 29.5565 7.96465 29.1176 5.41709 28.2408C5.32832 28.2102 5.24807 28.159 5.18295 28.0914C5.11783 28.0238 5.06971 27.9417 5.04253 27.8518C5.01535 27.762 5.00991 27.6669 5.02664 27.5746C5.04337 27.4822 5.0818 27.3951 5.13876 27.3205L6.73183 25.2422C7.1128 24.7495 7.52794 24.7179 7.97726 25.1475L10.183 27.2316C10.226 27.2729 10.2771 27.3048 10.3331 27.3253C10.389 27.3459 10.4486 27.3547 10.5081 27.3511C10.5676 27.3475 10.6258 27.3317 10.6789 27.3046C10.732 27.2775 10.7789 27.2398 10.8167 27.1937L12.2148 25.536C12.3348 25.3922 12.4846 25.2761 12.6537 25.1956C12.8229 25.1152 13.0074 25.0723 13.1947 25.07C13.382 25.0676 13.5676 25.1058 13.7387 25.1819C13.9098 25.2581 14.0624 25.3704 14.1861 25.5111L15.7218 27.2578C15.769 27.3105 15.8276 27.3518 15.8932 27.3785C15.9588 27.4051 16.0296 27.4165 16.1002 27.4116C16.1708 27.4067 16.2394 27.3858 16.3007 27.3503C16.362 27.3149 16.4144 27.266 16.4538 27.2072Z" fill="white"/>
<path d="M61.6349 16.6124C61.629 16.6079 61.6244 16.6019 61.6214 16.5952C61.6068 16.5633 61.5995 16.5251 61.5995 16.4807C61.597 13.9999 61.5954 11.498 61.5948 8.97527C61.5948 8.94368 61.582 8.91338 61.5594 8.89103C61.5367 8.86869 61.506 8.85614 61.4739 8.85614L58.5584 8.85989C58.541 8.85989 58.5238 8.86326 58.5077 8.86982C58.4917 8.87637 58.4771 8.88597 58.4648 8.89808C58.4525 8.91019 58.4428 8.92456 58.4361 8.94038C58.4295 8.9562 58.4261 8.97316 58.4261 8.99028V27.5864C58.4261 27.6013 58.4291 27.6161 58.4349 27.6299C58.4407 27.6437 58.4493 27.6562 58.4601 27.6667C58.4709 27.6772 58.4837 27.6856 58.4978 27.6913C58.5118 27.697 58.5269 27.7 58.5422 27.7L61.5005 27.7028C61.5187 27.7028 61.5362 27.6957 61.549 27.683C61.5619 27.6703 61.5691 27.6531 61.5691 27.6352C61.5703 25.3332 61.5751 23.0221 61.5834 20.702C61.5881 19.2593 62.4676 17.9469 63.9259 17.6871C66.2189 17.2781 67.3582 18.643 67.3563 20.7958C67.3544 23.0609 67.3522 25.3154 67.3497 27.5592C67.3495 27.578 67.3532 27.5967 67.3605 27.6141C67.3677 27.6315 67.3784 27.6473 67.392 27.6607C67.4055 27.674 67.4216 27.6846 67.4393 27.6918C67.4571 27.699 67.4761 27.7028 67.4953 27.7028H70.3727C70.4387 27.7028 70.4717 27.6702 70.4717 27.6052C70.4743 25.0843 70.4809 22.5412 70.4917 19.9759C70.4943 19.3224 70.4111 18.6845 70.2423 18.0623C69.5322 15.4385 67.2164 14.477 64.6673 14.9029C63.3957 15.1149 62.5514 15.6871 61.6957 16.6074C61.6906 16.6128 61.6843 16.617 61.6772 16.6194C61.6701 16.6218 61.6626 16.6224 61.6552 16.6212C61.6478 16.62 61.6408 16.617 61.6349 16.6124Z" fill="black"/>
<path d="M55.9008 22.1757C55.8152 20.0582 54.7891 18.6007 52.8225 17.8034C52.3568 17.6145 51.878 17.4657 51.3862 17.3569C50.3956 17.138 49.4038 16.9254 48.4107 16.719C46.9906 16.4244 45.7874 15.7246 45.8864 14.1271C46.014 12.0746 48.2908 11.5521 49.9718 11.8063C51.376 12.0196 52.1569 12.8179 52.3143 14.2012C52.3168 14.2241 52.3279 14.2453 52.3455 14.2607C52.3631 14.2761 52.3858 14.2846 52.4094 14.2847L55.5048 14.2885C55.5153 14.2885 55.5257 14.2864 55.5353 14.2825C55.545 14.2786 55.5537 14.2728 55.5611 14.2656C55.5684 14.2584 55.5742 14.2498 55.5781 14.2403C55.582 14.2309 55.584 14.2208 55.5839 14.2106C55.5591 11.3589 53.5669 9.43586 50.8132 8.98184C49.8283 8.81987 48.7981 8.82049 47.7225 8.98372C45.6332 9.30172 43.5373 10.5709 42.8691 12.6112C42.2161 14.6037 42.672 17.1458 44.4939 18.4441C45.1716 18.9275 45.9483 19.2858 46.824 19.5191C47.2726 19.6385 48.3127 19.8749 49.9441 20.2283L50.026 20.2461C50.8867 20.4328 51.5376 20.5741 52.0525 21.1007C52.4878 21.5447 52.6753 22.1232 52.615 22.8361C52.5513 23.5903 52.18 24.1297 51.5337 24.5302C49.9213 25.5302 45.737 25.4523 45.6542 22.7704C45.6527 22.7264 45.6339 22.6846 45.6017 22.654C45.5696 22.6234 45.5266 22.6062 45.4819 22.6063L42.515 22.6128C42.3931 22.6135 42.3351 22.6735 42.3408 22.7929C42.5635 27.2769 47.2523 28.5536 50.974 27.8538C53.9067 27.3013 56.0255 25.2619 55.9008 22.1757Z" fill="black"/>
<path d="M101.073 20.2527L105.79 15.249C105.805 15.2328 105.824 15.2198 105.845 15.2109C105.865 15.202 105.888 15.1975 105.91 15.1974L109.594 15.1956C109.71 15.1956 109.729 15.2368 109.648 15.3194L105.066 20.0285C104.985 20.1116 104.975 20.202 105.036 20.2996L109.592 27.5733C109.645 27.6584 109.621 27.7009 109.519 27.7009H106.195C106.113 27.7009 106.052 27.6668 106.009 27.5986L102.854 22.5847C102.844 22.569 102.831 22.5555 102.815 22.5453C102.8 22.535 102.782 22.5281 102.763 22.5251C102.745 22.5221 102.726 22.523 102.708 22.5278C102.69 22.5325 102.673 22.5411 102.658 22.5528C102.63 22.5759 102.587 22.6169 102.53 22.6757C102.088 23.1316 101.643 23.584 101.194 24.0331C101.116 24.1106 101.028 24.2222 100.932 24.3679C100.915 24.3942 100.906 24.4227 100.906 24.4533L100.907 27.6493C100.907 27.6632 100.901 27.6766 100.891 27.6864C100.881 27.6963 100.867 27.7018 100.853 27.7018L97.9107 27.7009C97.8771 27.7009 97.8449 27.6877 97.8212 27.6643C97.7974 27.6409 97.7841 27.6092 97.7841 27.5761V9.02499C97.7841 8.98046 97.8019 8.93775 97.8337 8.90626C97.8655 8.87477 97.9086 8.85708 97.9535 8.85708L100.787 8.85895C100.819 8.85895 100.849 8.87131 100.871 8.8933C100.894 8.91529 100.906 8.94511 100.906 8.97621L100.908 20.1889C100.908 20.3483 100.963 20.3696 101.073 20.2527Z" fill="black"/>
<path fill-rule="evenodd" clip-rule="evenodd" d="M79.2935 27.7365C80.218 27.4345 80.9646 26.8676 81.5332 26.0358C81.5377 26.0293 81.5442 26.0244 81.5517 26.0216C81.5592 26.0188 81.5674 26.0182 81.5752 26.02C81.583 26.0219 81.59 26.0259 81.5954 26.0318C81.6008 26.0376 81.6043 26.0449 81.6055 26.0527L81.7978 27.5414C81.8111 27.6471 81.872 27.7 81.9805 27.7L84.4373 27.7028C84.4684 27.7028 84.4983 27.6906 84.5204 27.669C84.5425 27.6474 84.555 27.6181 84.5553 27.5874C84.568 25.2116 84.567 22.8292 84.5524 20.4403C84.5473 19.5804 84.5036 18.9578 84.4211 18.5726C83.9746 16.4863 82.3946 15.2087 80.3015 14.9076C79.4531 14.7863 78.564 14.7885 77.6344 14.9142C75.31 15.2303 73.3663 16.7734 73.3358 19.203C73.3357 19.2143 73.3379 19.2255 73.3422 19.2359C73.3466 19.2464 73.353 19.2559 73.3611 19.2639C73.3693 19.272 73.379 19.2783 73.3897 19.2827C73.4004 19.287 73.4118 19.2893 73.4234 19.2893L75.8278 19.2883C75.8785 19.2884 75.9274 19.2692 75.9642 19.2346C76.001 19.2 76.0231 19.1528 76.0258 19.1026C76.0867 17.9075 77.2213 17.3043 78.3492 17.2359C78.9743 17.1983 79.4207 17.2108 79.6885 17.2734C81.0242 17.5836 81.6191 18.4338 81.4732 19.824C81.4707 19.854 81.4538 19.8703 81.4227 19.8728C80.1301 19.9747 78.8372 20.0754 77.544 20.1748C75.5279 20.3305 73.0931 21.3727 73.0322 23.7273L73.0318 23.7444C73.0222 24.132 73.008 24.711 73.1064 25.1325C73.3983 26.3832 74.1449 27.2384 75.3461 27.6981C76.534 28.153 78.1084 28.123 79.2935 27.7365ZM76.1947 24.1437C76.2727 25.9645 78.7418 25.9298 79.923 25.3998C81.2975 24.7826 81.5973 23.459 81.5326 22.0781C81.5323 22.0685 81.53 22.0591 81.5259 22.0503C81.5218 22.0416 81.516 22.0337 81.5089 22.0272C81.5017 22.0207 81.4933 22.0156 81.4842 22.0123C81.475 22.0089 81.4653 22.0074 81.4555 22.0078C80.3704 22.0497 79.3037 22.14 78.2554 22.2789C77.1922 22.4187 76.1413 22.9008 76.1947 24.1437Z" fill="black"/>
<path d="M111.078 19.7583C110.759 18.4929 111.027 17.0651 112.039 16.1496C112.826 15.4379 113.8 15.0158 114.961 14.8832C115.841 14.7825 116.629 14.7981 117.326 14.9301C119.256 15.2978 120.724 16.7265 120.79 18.7142C120.793 18.8199 120.741 18.8728 120.633 18.8728L117.919 18.8737C117.904 18.8738 117.889 18.8687 117.877 18.8594C117.864 18.85 117.856 18.8369 117.852 18.8221C117.836 18.7596 117.821 18.6963 117.807 18.6328C117.747 18.3743 117.686 18.1143 117.554 17.9056C117.006 17.0426 115.74 16.9582 114.871 17.2724C114.385 17.4475 114.082 17.764 113.961 18.2218C113.68 19.2893 114.576 19.8052 115.472 20.0022C117.038 20.3455 118.069 20.5947 118.563 20.7498C119.853 21.1532 120.829 21.9365 121.003 23.3061C121.185 24.7557 120.773 25.9104 119.769 26.7703C118.418 27.927 116.601 28.1155 114.875 27.9926C114.193 27.9438 113.514 27.755 112.837 27.426C111.414 26.7344 110.652 25.6034 110.55 24.0331C110.549 24.0185 110.552 24.0039 110.557 23.9901C110.562 23.9764 110.569 23.9638 110.58 23.9532C110.59 23.9425 110.602 23.9341 110.616 23.9283C110.629 23.9225 110.644 23.9195 110.659 23.9196L113.451 23.9271C113.477 23.9272 113.502 23.9367 113.521 23.9539C113.54 23.9711 113.552 23.9946 113.554 24.0199C113.729 25.761 115.844 25.9411 117.144 25.472C118.069 25.1372 118.503 23.8802 117.614 23.2338C117.442 23.1088 117.208 23.0087 116.911 22.9337C115.854 22.6654 114.794 22.4061 113.731 22.156C113.41 22.0803 113.015 21.9152 112.546 21.6607C111.777 21.2442 111.293 20.6091 111.078 19.7583Z" fill="black"/>
<path d="M95.0827 15.0361C93.3846 14.7106 91.7141 15.3175 90.8708 16.8306C90.8653 16.8403 90.8568 16.8481 90.8465 16.8529C90.8362 16.8576 90.8247 16.859 90.8137 16.8569C90.8026 16.8548 90.7926 16.8493 90.7851 16.8412C90.7775 16.8331 90.7729 16.8228 90.7718 16.8119L90.5976 15.3241C90.5941 15.2946 90.5797 15.2675 90.557 15.2478C90.5344 15.228 90.5051 15.2171 90.4748 15.2171L87.7973 15.2209C87.7556 15.2209 87.7157 15.2372 87.6862 15.2662C87.6568 15.2953 87.6402 15.3346 87.6402 15.3757V27.5724C87.6402 27.6062 87.6539 27.6387 87.6781 27.6626C87.7024 27.6865 87.7353 27.7 87.7697 27.7L90.6738 27.7028C90.748 27.7028 90.7851 27.6659 90.7851 27.5921C90.7832 25.5996 90.7842 23.6428 90.788 21.7217C90.7893 21.1538 90.8327 20.712 90.9184 20.3962C91.2712 19.0979 92.1377 18.3246 93.5179 18.0764C94.0105 17.9873 94.6025 17.9989 95.1641 18.0099C95.271 18.012 95.3768 18.014 95.4806 18.0154C95.4999 18.0156 95.5191 18.0121 95.5371 18.0049C95.555 17.9978 95.5713 17.9872 95.5851 17.9738C95.5989 17.9604 95.6099 17.9444 95.6175 17.9267C95.625 17.9091 95.629 17.8901 95.6291 17.8709C95.6304 17.5939 95.6269 17.3138 95.6234 17.0326C95.6166 16.4938 95.6098 15.9507 95.6367 15.417C95.6527 15.0939 95.4554 15.0757 95.2429 15.0561C95.1894 15.0511 95.135 15.0461 95.0827 15.0361Z" fill="black"/>
<path d="M127.192 9.60115H127.945C128.162 9.60115 128.33 9.54404 128.452 9.42982C128.571 9.31561 128.631 9.15739 128.631 8.95517C128.631 8.75856 128.568 8.60128 128.443 8.48332C128.318 8.36723 128.149 8.30918 127.937 8.30918H127.192V9.60115ZM127.192 11.6992H126.333V7.64635H128.028C128.496 7.64635 128.862 7.7615 129.126 7.99181C129.384 8.22024 129.513 8.53575 129.513 8.93832C129.513 9.20233 129.447 9.43638 129.316 9.64047C129.184 9.85018 129.001 9.99997 128.767 10.0898L129.632 11.6992H128.659L127.894 10.2162H127.192V11.6992Z" fill="black"/>
<path fill-rule="evenodd" clip-rule="evenodd" d="M127.82 12.7786C129.501 12.7786 130.864 11.4331 130.864 9.77323C130.864 8.11341 129.501 6.76786 127.82 6.76786C126.139 6.76786 124.777 8.11341 124.777 9.77323C124.777 11.4331 126.139 12.7786 127.82 12.7786ZM127.82 13.58C129.95 13.58 131.676 11.8757 131.676 9.77323C131.676 7.67079 129.95 5.96643 127.82 5.96643C125.691 5.96643 123.965 7.67079 123.965 9.77323C123.965 11.8757 125.691 13.58 127.82 13.58Z" fill="black"/>
</svg>
